<svg width="20" height="20" viewBox="0 0 20 20" fill="none" xmlns="http://www.w3.org/2000/svg">
<path d="M15.8332 18.9583C14.4832 18.9583 13.2082 18.2583 12.4915 17.1083C12.1082 16.5166 11.8916 15.8082 11.8749 15.0832C11.8499 13.8666 12.3666 12.7333 13.2916 11.9666C13.9832 11.3916 14.8499 11.0666 15.7416 11.0416C16.8249 11.0333 17.7999 11.4083 18.5666 12.1416C19.3332 12.8749 19.7665 13.8583 19.7832 14.9166C19.7999 15.6416 19.6166 16.3499 19.2499 16.9749C19.0499 17.3249 18.7916 17.6499 18.4832 17.9249C17.7999 18.5666 16.8832 18.9416 15.9082 18.9583C15.8916 18.9583 15.8666 18.9583 15.8332 18.9583ZM15.8332 12.2916C15.8166 12.2916 15.7916 12.2916 15.7749 12.2916C15.1582 12.3083 14.5749 12.5249 14.0916 12.9249C13.4582 13.4499 13.1082 14.2249 13.1249 15.0583C13.1332 15.5499 13.2832 16.0333 13.5416 16.4416C14.0499 17.2582 14.9332 17.7583 15.8832 17.7083C16.5416 17.6916 17.1666 17.4416 17.6416 17C17.8582 16.8083 18.0332 16.5916 18.1665 16.3583C18.4165 15.9249 18.5415 15.4416 18.5332 14.9499C18.5165 14.2249 18.2249 13.5499 17.6999 13.0499C17.1999 12.5582 16.5332 12.2916 15.8332 12.2916Z" fill="#F58634"/>
<path d="M15.3751 16.4583C15.2167 16.4583 15.0667 16.3999 14.9417 16.2833L14.1001 15.4833C13.8501 15.2416 13.8417 14.85 14.0834 14.6C14.325 14.35 14.7167 14.3416 14.9667 14.5833L15.3751 14.9749L16.6834 13.7083C16.9334 13.4666 17.325 13.4749 17.5667 13.7249C17.8084 13.9749 17.8 14.3666 17.55 14.6083L15.8084 16.2916C15.6834 16.3999 15.5251 16.4583 15.3751 16.4583Z" fill="#F58634"/>
<path d="M9.99979 11.0832C9.89145 11.0832 9.78312 11.0582 9.68312 10.9999L2.3248 6.74159C2.0248 6.56659 1.92478 6.18323 2.09978 5.88323C2.27478 5.58323 2.65813 5.48321 2.94979 5.65821L9.99145 9.73322L16.9915 5.68324C17.2915 5.50824 17.6748 5.61659 17.8415 5.90825C18.0165 6.20825 17.9081 6.59156 17.6165 6.76656L10.3081 10.9999C10.2165 11.0499 10.1081 11.0832 9.99979 11.0832Z" fill="#F58634"/>
<path d="M10 18.6332C9.65833 18.6332 9.375 18.3498 9.375 18.0082V10.4498C9.375 10.1082 9.65833 9.82483 10 9.82483C10.3417 9.82483 10.625 10.1082 10.625 10.4498V18.0082C10.625 18.3498 10.3417 18.6332 10 18.6332Z" fill="#F58634"/>
<path d="M10.0001 18.9583C9.26673 18.9583 8.53339 18.7999 7.96673 18.4749L3.51673 16.0083C2.3084 15.3416 1.3584 13.7333 1.3584 12.3499V7.63325C1.3584 6.24991 2.3084 4.64995 3.51673 3.97495L7.96673 1.50827C9.10006 0.866599 10.8834 0.866599 12.0251 1.50827L16.4751 3.97495C17.6834 4.64162 18.6334 6.24991 18.6334 7.63325V12.3499C18.6334 12.4333 18.6334 12.4999 18.6167 12.5832C18.5751 12.7999 18.4167 12.9832 18.2084 13.0499C18.0001 13.1249 17.7667 13.075 17.5917 12.9333C16.6334 12.1 15.1501 12.0666 14.1417 12.8749C13.5001 13.3833 13.1251 14.1583 13.1251 14.9833C13.1251 15.4749 13.2584 15.9583 13.5167 16.375C13.5834 16.4916 13.6501 16.5833 13.7251 16.6749C13.8501 16.8166 13.9001 17.0083 13.8667 17.1916C13.8334 17.3749 13.7167 17.5333 13.5501 17.625L12.0251 18.4666C11.4584 18.7999 10.7334 18.9583 10.0001 18.9583ZM10.0001 2.2916C9.48339 2.2916 8.95838 2.39994 8.58338 2.60827L4.13339 5.07496C3.32505 5.51662 2.62506 6.71658 2.62506 7.63325V12.3499C2.62506 13.2666 3.33339 14.4666 4.13339 14.9083L8.58338 17.3749C9.34172 17.7999 10.6667 17.7999 11.4251 17.3749L12.3584 16.8583C12.05 16.2999 11.8834 15.6499 11.8834 14.9833C11.8834 13.7666 12.4251 12.6416 13.3667 11.8916C14.5001 10.9833 16.1167 10.7916 17.3917 11.3332V7.61661C17.3917 6.69995 16.6834 5.49994 15.8834 5.05827L11.4334 2.59159C11.0417 2.39992 10.5167 2.2916 10.0001 2.2916Z" fill="#F58634"/>
</svg>
