<svg width="20" height="20" viewBox="0 0 20 20" fill="none" xmlns="http://www.w3.org/2000/svg">
<path d="M7.08333 12.084C6.86667 12.084 6.65 11.9923 6.49167 11.8423C6.34167 11.684 6.25 11.4756 6.25 11.2506C6.25 11.1423 6.275 11.034 6.31667 10.934C6.35833 10.834 6.41667 10.7423 6.49167 10.659C6.8 10.3507 7.35833 10.3507 7.675 10.659C7.825 10.8173 7.91667 11.034 7.91667 11.2506C7.91667 11.3006 7.90834 11.359 7.9 11.4173C7.89167 11.4673 7.875 11.5173 7.85 11.5673C7.83333 11.6173 7.80834 11.6673 7.775 11.7173C7.74167 11.759 7.70833 11.8006 7.675 11.8423C7.51667 11.9923 7.3 12.084 7.08333 12.084Z" fill="#4F4F4F"/>
<path d="M9.99935 12.0839C9.89102 12.0839 9.78269 12.0589 9.68268 12.0173C9.57435 11.9756 9.49102 11.9172 9.40768 11.8422C9.25768 11.6839 9.16602 11.4756 9.16602 11.2506C9.16602 11.1423 9.19102 11.0339 9.23268 10.9339C9.27435 10.8339 9.33268 10.7423 9.40768 10.6589C9.49102 10.5839 9.57435 10.5256 9.68268 10.4839C9.99102 10.3589 10.3577 10.4256 10.591 10.6589C10.741 10.8173 10.8327 11.0339 10.8327 11.2506C10.8327 11.3006 10.8244 11.3589 10.816 11.4173C10.8077 11.4673 10.791 11.5173 10.766 11.5673C10.7493 11.6173 10.7244 11.6672 10.691 11.7172C10.666 11.7589 10.6243 11.8006 10.591 11.8422C10.4327 11.9922 10.216 12.0839 9.99935 12.0839Z" fill="#4F4F4F"/>
<path d="M7.08333 14.9996C6.975 14.9996 6.86667 14.9747 6.76667 14.933C6.65834 14.8913 6.56667 14.833 6.49167 14.758C6.41667 14.683 6.35833 14.5913 6.31667 14.483C6.275 14.383 6.25 14.2746 6.25 14.1663C6.25 14.058 6.275 13.9496 6.31667 13.8496C6.35833 13.7413 6.41667 13.6496 6.49167 13.5746C6.56667 13.4996 6.65834 13.4413 6.76667 13.3996C6.96667 13.3163 7.2 13.308 7.4 13.3996C7.50833 13.4413 7.6 13.4996 7.675 13.5746C7.75 13.6496 7.80833 13.7413 7.85 13.8496C7.89167 13.9496 7.91667 14.058 7.91667 14.1663C7.91667 14.2746 7.89167 14.383 7.85 14.483C7.80833 14.5913 7.75 14.683 7.675 14.758C7.6 14.833 7.50833 14.8913 7.4 14.933C7.3 14.9747 7.19167 14.9996 7.08333 14.9996Z" fill="#4F4F4F"/>
<path d="M12.8083 18.9577H6.66667C3.625 18.9577 1.875 17.2077 1.875 14.166V7.08268C1.875 4.04102 3.625 2.29102 6.66667 2.29102H13.3333C16.375 2.29102 18.125 4.04102 18.125 7.08268V13.6327C18.125 13.891 17.9667 14.1243 17.7167 14.216C17.475 14.3077 17.2 14.241 17.025 14.041C16.5083 13.4577 15.7667 13.1243 14.9917 13.1243C13.5 13.1243 12.2833 14.341 12.2833 15.8327C12.2833 16.3243 12.4167 16.8077 12.675 17.2244C12.8167 17.4744 13 17.6827 13.2 17.8577C13.4 18.0243 13.475 18.2994 13.3833 18.5494C13.3083 18.791 13.075 18.9577 12.8083 18.9577ZM6.66667 3.54102C4.28333 3.54102 3.125 4.69935 3.125 7.08268V14.166C3.125 16.5493 4.28333 17.7077 6.66667 17.7077H11.5167C11.2083 17.141 11.0417 16.4993 11.0417 15.8327C11.0417 13.6493 12.8167 11.8743 15 11.8743C15.6583 11.8743 16.3083 12.041 16.875 12.3494V7.08268C16.875 4.69935 15.7167 3.54102 13.3333 3.54102H6.66667Z" fill="#4F4F4F"/>
<path d="M17.0827 8.19922H2.91602C2.57435 8.19922 2.29102 7.91589 2.29102 7.57422C2.29102 7.23255 2.57435 6.94922 2.91602 6.94922H17.0827C17.4244 6.94922 17.7077 7.23255 17.7077 7.57422C17.7077 7.91589 17.4244 8.19922 17.0827 8.19922Z" fill="#4F4F4F"/>
<path d="M6.66602 4.79102C6.32435 4.79102 6.04102 4.50768 6.04102 4.16602V1.66602C6.04102 1.32435 6.32435 1.04102 6.66602 1.04102C7.00768 1.04102 7.29102 1.32435 7.29102 1.66602V4.16602C7.29102 4.50768 7.00768 4.79102 6.66602 4.79102Z" fill="#4F4F4F"/>
<path d="M13.334 4.79102C12.9923 4.79102 12.709 4.50768 12.709 4.16602V1.66602C12.709 1.32435 12.9923 1.04102 13.334 1.04102C13.6756 1.04102 13.959 1.32435 13.959 1.66602V4.16602C13.959 4.50768 13.6756 4.79102 13.334 4.79102Z" fill="#4F4F4F"/>
<path d="M14.9993 19.7917C14.0243 19.7917 13.0994 19.4417 12.391 18.8C12.091 18.55 11.8243 18.2333 11.6077 17.8667C11.241 17.2667 11.041 16.5583 11.041 15.8333C11.041 13.65 12.816 11.875 14.9993 11.875C16.1327 11.875 17.216 12.3667 17.966 13.2167C18.6077 13.95 18.9577 14.875 18.9577 15.8333C18.9577 16.5583 18.7577 17.2667 18.3827 17.875C17.6827 19.0583 16.3827 19.7917 14.9993 19.7917ZM14.9993 13.125C13.5077 13.125 12.291 14.3417 12.291 15.8333C12.291 16.325 12.4244 16.8083 12.6827 17.225C12.8244 17.475 13.0077 17.6833 13.2077 17.8583C13.7077 18.3083 14.3327 18.5417 14.9993 18.5417C15.9577 18.5417 16.8243 18.05 17.316 17.2333C17.5743 16.8083 17.7077 16.3333 17.7077 15.8333C17.7077 15.1833 17.466 14.55 17.0327 14.0417C16.516 13.4583 15.7743 13.125 14.9993 13.125Z" fill="#4F4F4F"/>
<path d="M14.526 17.2826C14.3677 17.2826 14.2094 17.2243 14.0844 17.0993L13.2594 16.2743C13.0177 16.0326 13.0177 15.6326 13.2594 15.391C13.501 15.1493 13.901 15.1493 14.1427 15.391L14.5427 15.791L15.876 14.5576C16.126 14.3243 16.526 14.341 16.7594 14.591C16.9927 14.841 16.976 15.241 16.726 15.4743L14.951 17.116C14.826 17.2243 14.676 17.2826 14.526 17.2826Z" fill="#4F4F4F"/>
</svg>
