<svg width="24" height="24" viewBox="0 0 24 24" fill="none" xmlns="http://www.w3.org/2000/svg">
<path d="M7.44737 11H5.55263C3.26 11 2 9.74 2 7.44737V5.55263C2 3.26 3.26 2 5.55263 2H7.44737C9.74 2 11 3.26 11 5.55263V7.44737C11 9.74 9.74 11 7.44737 11ZM5.55263 3.42105C4.05579 3.42105 3.42105 4.05579 3.42105 5.55263V7.44737C3.42105 8.94421 4.05579 9.57895 5.55263 9.57895H7.44737C8.94421 9.57895 9.57895 8.94421 9.57895 7.44737V5.55263C9.57895 4.05579 8.94421 3.42105 7.44737 3.42105H5.55263Z" fill="#F58634"/>
<path d="M18.4474 11H16.5526C14.26 11 13 9.74 13 7.44737V5.55263C13 3.26 14.26 2 16.5526 2H18.4474C20.74 2 22 3.26 22 5.55263V7.44737C22 9.74 20.74 11 18.4474 11ZM16.5526 3.42105C15.0558 3.42105 14.4211 4.05579 14.4211 5.55263V7.44737C14.4211 8.94421 15.0558 9.57895 16.5526 9.57895H18.4474C19.9442 9.57895 20.5789 8.94421 20.5789 7.44737V5.55263C20.5789 4.05579 19.9442 3.42105 18.4474 3.42105H16.5526Z" fill="#F58634"/>
<path d="M18.4474 22H16.5526C14.26 22 13 20.74 13 18.4474V16.5526C13 14.26 14.26 13 16.5526 13H18.4474C20.74 13 22 14.26 22 16.5526V18.4474C22 20.74 20.74 22 18.4474 22ZM16.5526 14.4211C15.0558 14.4211 14.4211 15.0558 14.4211 16.5526V18.4474C14.4211 19.9442 15.0558 20.5789 16.5526 20.5789H18.4474C19.9442 20.5789 20.5789 19.9442 20.5789 18.4474V16.5526C20.5789 15.0558 19.9442 14.4211 18.4474 14.4211H16.5526Z" fill="#F58634"/>
<path d="M7.44737 22H5.55263C3.26 22 2 20.74 2 18.4474V16.5526C2 14.26 3.26 13 5.55263 13H7.44737C9.74 13 11 14.26 11 16.5526V18.4474C11 20.74 9.74 22 7.44737 22ZM5.55263 14.4211C4.05579 14.4211 3.42105 15.0558 3.42105 16.5526V18.4474C3.42105 19.9442 4.05579 20.5789 5.55263 20.5789H7.44737C8.94421 20.5789 9.57895 19.9442 9.57895 18.4474V16.5526C9.57895 15.0558 8.94421 14.4211 7.44737 14.4211H5.55263Z" fill="#F58634"/>
</svg>
