<svg width="20" height="20" viewBox="0 0 20 20" fill="none" xmlns="http://www.w3.org/2000/svg">
<path d="M9.99984 18.9583C9.47484 18.9583 8.98317 18.7584 8.6165 18.3834L7.34984 17.1167C7.24984 17.0167 6.98317 16.9083 6.84984 16.9083H5.04984C3.9665 16.9083 3.0915 16.0333 3.0915 14.9499V13.15C3.0915 13.0167 2.98316 12.75 2.88316 12.65L1.61651 11.3833C1.24984 11.0167 1.0415 10.525 1.0415 9.99997C1.0415 9.47497 1.24151 8.98328 1.61651 8.61661L2.88316 7.34993C2.98316 7.24993 3.0915 6.98328 3.0915 6.84995V5.05002C3.0915 3.96669 3.9665 3.09161 5.04984 3.09161H6.84984C6.98317 3.09161 7.24984 2.98327 7.34984 2.88327L8.6165 1.61659C9.34983 0.883256 10.6498 0.883256 11.3832 1.61659L12.6498 2.88327C12.7498 2.98327 13.0165 3.09161 13.1498 3.09161H14.9498C16.0332 3.09161 16.9082 3.96669 16.9082 5.05002V6.84995C16.9082 6.98328 17.0165 7.24993 17.1165 7.34993L18.3832 8.61661C18.7498 8.98328 18.9582 9.47497 18.9582 9.99997C18.9582 10.525 18.7582 11.0167 18.3832 11.3833L17.1165 12.65C17.0165 12.75 16.9082 13.0167 16.9082 13.15V14.9499C16.9082 16.0333 16.0332 16.9083 14.9498 16.9083H13.1498C13.0165 16.9083 12.7498 17.0167 12.6498 17.1167L11.3832 18.3834C11.0165 18.7584 10.5248 18.9583 9.99984 18.9583ZM3.76649 11.7666C4.09983 12.1 4.3415 12.6833 4.3415 13.15V14.9499C4.3415 15.3416 4.65817 15.6583 5.04984 15.6583H6.84984C7.31651 15.6583 7.89984 15.9 8.23317 16.2333L9.49983 17.5C9.7665 17.7666 10.2332 17.7666 10.4998 17.5L11.7665 16.2333C12.0998 15.9 12.6832 15.6583 13.1498 15.6583H14.9498C15.3415 15.6583 15.6582 15.3416 15.6582 14.9499V13.15C15.6582 12.6833 15.8998 12.1 16.2332 11.7666L17.4998 10.5C17.6332 10.3666 17.7082 10.1916 17.7082 9.99997C17.7082 9.80831 17.6332 9.63333 17.4998 9.49999L16.2332 8.23331C15.8998 7.89998 15.6582 7.31661 15.6582 6.84995V5.05002C15.6582 4.65835 15.3415 4.34161 14.9498 4.34161H13.1498C12.6832 4.34161 12.0998 4.09999 11.7665 3.76665L10.4998 2.49997C10.2332 2.2333 9.7665 2.2333 9.49983 2.49997L8.23317 3.76665C7.89984 4.09999 7.31651 4.34161 6.84984 4.34161H5.04984C4.65817 4.34161 4.3415 4.65835 4.3415 5.05002V6.84995C4.3415 7.31661 4.09983 7.89998 3.76649 8.23331L2.49984 9.49999C2.3665 9.63333 2.2915 9.80831 2.2915 9.99997C2.2915 10.1916 2.3665 10.3666 2.49984 10.5L3.76649 11.7666Z" fill="#F53434"/>
<path d="M12.5004 13.3333C12.0337 13.3333 11.6587 12.9583 11.6587 12.5C11.6587 12.0417 12.0337 11.6667 12.492 11.6667C12.9504 11.6667 13.3254 12.0417 13.3254 12.5C13.3254 12.9583 12.9587 13.3333 12.5004 13.3333Z" fill="#F53434"/>
<path d="M7.50818 8.33333C7.04151 8.33333 6.6665 7.95833 6.6665 7.5C6.6665 7.04166 7.0415 6.66666 7.49984 6.66666C7.95817 6.66666 8.33317 7.04166 8.33317 7.5C8.33317 7.95833 7.96651 8.33333 7.50818 8.33333Z" fill="#F53434"/>
<path d="M7.49987 13.125C7.34154 13.125 7.1832 13.0667 7.0582 12.9417C6.81654 12.7 6.81654 12.3 7.0582 12.0583L12.0582 7.05829C12.2999 6.81662 12.6999 6.81662 12.9415 7.05829C13.1832 7.29995 13.1832 7.7 12.9415 7.94167L7.94153 12.9417C7.81653 13.0667 7.6582 13.125 7.49987 13.125Z" fill="#F53434"/>
</svg>
