<svg width="20" height="20" viewBox="0 0 20 20" fill="none" xmlns="http://www.w3.org/2000/svg">
<path d="M14.784 18.957H5.21732C3.14232 18.957 1.45898 17.2737 1.45898 15.1987V9.59037C1.45898 7.51537 3.14232 5.83203 5.21732 5.83203H14.784C16.859 5.83203 18.5423 7.51537 18.5423 9.59037V10.7904C18.5423 11.132 18.259 11.4154 17.9173 11.4154H16.234C15.9423 11.4154 15.6757 11.5237 15.484 11.7237L15.4757 11.732C15.2423 11.957 15.134 12.2653 15.159 12.582C15.209 13.132 15.734 13.5737 16.334 13.5737H17.9173C18.259 13.5737 18.5423 13.857 18.5423 14.1987V15.1903C18.5423 17.2737 16.859 18.957 14.784 18.957ZM5.21732 7.08203C3.83398 7.08203 2.70898 8.20704 2.70898 9.59037V15.1987C2.70898 16.582 3.83398 17.707 5.21732 17.707H14.784C16.1673 17.707 17.2923 16.582 17.2923 15.1987V14.832H16.334C15.0757 14.832 14.009 13.8987 13.909 12.6987C13.8423 12.0154 14.0923 11.3404 14.5923 10.8487C15.0257 10.407 15.609 10.1654 16.234 10.1654H17.2923V9.59037C17.2923 8.20704 16.1673 7.08203 14.784 7.08203H5.21732Z" fill="#4F4F4F"/>
<path d="M2.08398 10.966C1.74232 10.966 1.45898 10.6827 1.45898 10.341V6.53273C1.45898 5.29107 2.24232 4.16602 3.40065 3.72435L10.0173 1.22435C10.7007 0.96602 11.459 1.05773 12.0506 1.47439C12.6507 1.89106 13.0007 2.56605 13.0007 3.29105V6.45771C13.0007 6.79938 12.7173 7.08271 12.3757 7.08271C12.034 7.08271 11.7507 6.79938 11.7507 6.45771V3.29105C11.7507 2.97439 11.6007 2.68271 11.334 2.49938C11.0673 2.31604 10.7507 2.27437 10.4507 2.39104L3.83398 4.89104C3.15898 5.14937 2.70065 5.80773 2.70065 6.53273V10.341C2.70898 10.691 2.42565 10.966 2.08398 10.966Z" fill="#4F4F4F"/>
<path d="M16.3301 14.8346C15.0718 14.8346 14.0051 13.9013 13.9051 12.7013C13.8385 12.0096 14.0885 11.3346 14.5885 10.843C15.0135 10.4096 15.5968 10.168 16.2218 10.168H17.9551C18.7801 10.193 19.4135 10.8429 19.4135 11.6429V13.3597C19.4135 14.1597 18.7801 14.8096 17.9801 14.8346H16.3301ZM17.9385 11.418H16.2301C15.9385 11.418 15.6718 11.5263 15.4801 11.7263C15.2385 11.9596 15.1218 12.2763 15.1551 12.5929C15.2051 13.1429 15.7301 13.5846 16.3301 13.5846H17.9635C18.0718 13.5846 18.1718 13.4847 18.1718 13.3597V11.6429C18.1718 11.5179 18.0718 11.4263 17.9385 11.418Z" fill="#4F4F4F"/>
<path d="M11.6673 10.623H5.83398C5.49232 10.623 5.20898 10.3397 5.20898 9.99805C5.20898 9.65638 5.49232 9.37305 5.83398 9.37305H11.6673C12.009 9.37305 12.2923 9.65638 12.2923 9.99805C12.2923 10.3397 12.009 10.623 11.6673 10.623Z" fill="#4F4F4F"/>
</svg>
