<svg width="20" height="20" viewBox="0 0 20 20" fill="none" xmlns="http://www.w3.org/2000/svg">
<path d="M19.0908 5.3403C19.0908 4.88839 18.9112 4.45499 18.5916 4.13544C18.2719 3.81589 17.8383 3.63637 17.3863 3.63637H7.159C6.70693 3.63637 6.27337 3.81589 5.9537 4.13544C5.63404 4.45499 5.45446 4.88839 5.45446 5.3403V7.04423H4.29536C4.03998 7.04446 3.78791 7.10205 3.55778 7.21275C3.32765 7.32345 3.12535 7.48442 2.96582 7.68378L1.28287 9.78529C1.04072 10.0877 0.908852 10.4635 0.909 10.8508V13.292C0.909 13.7439 1.08858 14.1773 1.40825 14.4968C1.72791 14.8164 2.16147 14.9959 2.61355 14.9959H3.18173C3.18173 15.5985 3.42118 16.1763 3.84739 16.6024C4.27361 17.0285 4.85169 17.2678 5.45446 17.2678C6.05722 17.2678 6.6353 17.0285 7.06152 16.6024C7.48773 16.1763 7.72718 15.5985 7.72718 14.9959H13.409C13.4083 15.2987 13.4683 15.5986 13.5852 15.878C13.7022 16.1573 13.8738 16.4105 14.0901 16.6226C14.3063 16.8347 14.5628 17.0014 14.8444 17.1129C15.1261 17.2245 15.4272 17.2787 15.73 17.2722C16.0329 17.2658 16.3314 17.1989 16.6081 17.0755C16.8847 16.952 17.1338 16.7746 17.3409 16.5535C17.5479 16.3324 17.7086 16.0722 17.8136 15.7881C17.9186 15.5041 17.9657 15.2019 17.9522 14.8994C18.2851 14.7822 18.5734 14.5647 18.7774 14.2768C18.9813 13.9889 19.0908 13.6448 19.0908 13.292V5.3403ZM17.6204 13.81C17.4149 13.4737 17.1255 13.1967 16.7805 13.0061C16.4355 12.8156 16.0468 12.718 15.6527 12.7231C15.2586 12.7281 14.8726 12.8356 14.5326 13.0349C14.1926 13.2342 13.9103 13.5186 13.7135 13.86H7.42264C7.22275 13.5149 6.93596 13.2283 6.59082 13.0284V5.3403C6.59082 5.18966 6.65068 5.0452 6.75724 4.93868C6.86379 4.83216 7.00831 4.77232 7.159 4.77232H17.3863C17.537 4.77232 17.6815 4.83216 17.788 4.93868C17.8946 5.0452 17.9545 5.18966 17.9545 5.3403V13.292C17.9545 13.4013 17.9231 13.5083 17.8638 13.6002C17.8045 13.6921 17.72 13.7649 17.6204 13.81ZM5.45446 12.724C5.05552 12.724 4.66361 12.829 4.31812 13.0284C3.97264 13.2278 3.68574 13.5146 3.48627 13.86H2.61355C2.46285 13.86 2.31833 13.8001 2.21178 13.6936C2.10522 13.5871 2.04536 13.4426 2.04536 13.292V10.8497C2.04559 10.7208 2.08967 10.5958 2.17036 10.4953L3.85218 8.39375C3.90532 8.32723 3.97274 8.2735 4.04945 8.23653C4.12616 8.19956 4.21021 8.18031 4.29536 8.18019H5.45446V12.724ZM15.6817 13.86C15.9831 13.86 16.2722 13.9796 16.4853 14.1927C16.6984 14.4057 16.8181 14.6946 16.8181 14.9959C16.8181 15.2972 16.6984 15.5861 16.4853 15.7992C16.2722 16.0122 15.9831 16.1319 15.6817 16.1319C15.3803 16.1319 15.0913 16.0122 14.8782 15.7992C14.6651 15.5861 14.5454 15.2972 14.5454 14.9959C14.5454 14.6946 14.6651 14.4057 14.8782 14.1927C15.0913 13.9796 15.3803 13.86 15.6817 13.86ZM5.45446 13.86C5.75584 13.86 6.04488 13.9796 6.25799 14.1927C6.4711 14.4057 6.59082 14.6946 6.59082 14.9959C6.59082 15.2972 6.4711 15.5861 6.25799 15.7992C6.04488 16.0122 5.75584 16.1319 5.45446 16.1319C5.15307 16.1319 4.86403 16.0122 4.65092 15.7992C4.43782 15.5861 4.31809 15.2972 4.31809 14.9959C4.31809 14.6946 4.43782 14.4057 4.65092 14.1927C4.86403 13.9796 5.15307 13.86 5.45446 13.86Z" fill="#4F4F4F"/>
</svg>
