<svg width="16" height="18" viewBox="0 0 16 18" fill="none" xmlns="http://www.w3.org/2000/svg">
<path d="M5.00526 1.78875C3.93379 2.08404 2.86961 2.40514 1.81363 2.75175C1.71721 2.78298 1.63149 2.84067 1.56625 2.91824C1.50102 2.99581 1.45887 3.09015 1.44463 3.1905C0.821381 7.86713 2.26138 11.2793 3.97926 13.527C4.70659 14.4882 5.57384 15.335 6.55213 16.0391C6.94138 16.3136 7.28563 16.5116 7.55676 16.6388C7.69176 16.7029 7.80201 16.7456 7.88638 16.7715C7.92328 16.7844 7.96133 16.7939 8.00001 16.7996C8.03823 16.7934 8.07586 16.784 8.11251 16.7715C8.19801 16.7456 8.30826 16.7029 8.44326 16.6388C8.71326 16.5116 9.05863 16.3125 9.44788 16.0391C10.4262 15.335 11.2934 14.4882 12.0208 13.527C13.7386 11.2804 15.1786 7.86713 14.5554 3.1905C14.5413 3.0901 14.4992 2.99571 14.4339 2.91811C14.3687 2.84052 14.2829 2.78287 14.1864 2.75175C13.454 2.51213 12.2176 2.12175 10.9948 1.78987C9.74601 1.45125 8.59738 1.20038 8.00001 1.20038C7.40376 1.20038 6.25401 1.45125 5.00526 1.78987V1.78875ZM4.70601 0.63C5.92663 0.298125 7.22376 0 8.00001 0C8.77626 0 10.0734 0.298125 11.294 0.63C12.5428 0.9675 13.8016 1.36687 14.5419 1.60875C14.8514 1.71096 15.1258 1.8984 15.3335 2.14954C15.5413 2.40068 15.674 2.70533 15.7164 3.0285C16.3869 8.06513 14.831 11.7979 12.9433 14.2673C12.1428 15.3236 11.1882 16.2538 10.1116 17.0269C9.73936 17.2944 9.34493 17.5296 8.93263 17.73C8.61763 17.8785 8.27901 18 8.00001 18C7.72101 18 7.38351 17.8785 7.06738 17.73C6.65508 17.5296 6.26065 17.2944 5.88838 17.0269C4.81179 16.2538 3.85729 15.3236 3.05676 14.2673C1.16901 11.7979 -0.386869 8.06513 0.283631 3.0285C0.326029 2.70533 0.45873 2.40068 0.666488 2.14954C0.874246 1.8984 1.14863 1.71096 1.45813 1.60875C2.53272 1.25641 3.61566 0.930065 4.70601 0.63Z" fill="#009E36"/>
<path d="M11.211 5.78925C11.2634 5.8415 11.3049 5.90357 11.3333 5.97191C11.3616 6.04025 11.3762 6.11351 11.3762 6.1875C11.3762 6.26149 11.3616 6.33475 11.3333 6.40309C11.3049 6.47142 11.2634 6.5335 11.211 6.58575L7.83597 9.96075C7.78372 10.0131 7.72165 10.0547 7.65331 10.083C7.58497 10.1114 7.51171 10.126 7.43772 10.126C7.36373 10.126 7.29047 10.1114 7.22213 10.083C7.1538 10.0547 7.09172 10.0131 7.03947 9.96075L5.35197 8.27325C5.29967 8.22095 5.25819 8.15886 5.22988 8.09053C5.20158 8.0222 5.18701 7.94896 5.18701 7.875C5.18701 7.80104 5.20158 7.7278 5.22988 7.65947C5.25819 7.59113 5.29967 7.52905 5.35197 7.47675C5.40427 7.42445 5.46636 7.38296 5.53469 7.35466C5.60302 7.32636 5.67626 7.31179 5.75022 7.31179C5.82418 7.31179 5.89742 7.32636 5.96575 7.35466C6.03409 7.38296 6.09617 7.42445 6.14847 7.47675L7.43772 8.76712L10.4145 5.78925C10.4667 5.73686 10.5288 5.6953 10.5971 5.66695C10.6655 5.63859 10.7387 5.62399 10.8127 5.62399C10.8867 5.62399 10.96 5.63859 11.0283 5.66695C11.0966 5.6953 11.1587 5.73686 11.211 5.78925Z" fill="#009E36"/>
</svg>
