<svg width="78" height="23" viewBox="0 0 78 23" fill="none" xmlns="http://www.w3.org/2000/svg">
<path d="M14.6212 18.821V22.6927H3.309V18.821H14.6212ZM5.01736 0.322645V22.6927H0V0.322645H5.01736Z" fill="#FB9300"/>
<path d="M34.7522 11.016V12.0147C34.7522 13.715 34.5162 15.2411 34.0442 16.5932C33.5825 17.9452 32.9207 19.0975 32.0588 20.0501C31.2072 21.0027 30.1914 21.735 29.0114 22.2472C27.8418 22.7491 26.5438 23 25.1176 23C23.6914 23 22.3883 22.7491 21.2084 22.2472C20.0284 21.735 19.0024 21.0027 18.1302 20.0501C17.2684 19.0975 16.6014 17.9452 16.1294 16.5932C15.6575 15.2411 15.4215 13.715 15.4215 12.0147V11.016C15.4215 9.31574 15.6575 7.78958 16.1294 6.43754C16.6014 5.07526 17.2632 3.91784 18.1148 2.96526C18.9767 2.01269 19.9976 1.28546 21.1776 0.783567C22.3575 0.271432 23.6606 0.0153641 25.0868 0.0153641C26.513 0.0153641 27.8161 0.271432 28.9961 0.783567C30.176 1.28546 31.1918 2.01269 32.0434 2.96526C32.9053 3.91784 33.5722 5.07526 34.0442 6.43754C34.5162 7.78958 34.7522 9.31574 34.7522 11.016ZM29.6886 12.0147V10.9853C29.6886 9.84836 29.586 8.84458 29.3808 7.97395C29.1756 7.09308 28.8781 6.3556 28.4882 5.76152C28.0983 5.16745 27.616 4.72189 27.0414 4.42485C26.4669 4.11757 25.8153 3.96393 25.0868 3.96393C24.3275 3.96393 23.6657 4.11757 23.1014 4.42485C22.5371 4.72189 22.06 5.16745 21.6701 5.76152C21.2905 6.3556 20.998 7.09308 20.7928 7.97395C20.5979 8.84458 20.5004 9.84836 20.5004 10.9853V12.0147C20.5004 13.1414 20.5979 14.1452 20.7928 15.0261C20.998 15.8967 21.2956 16.6342 21.6855 17.2385C22.0754 17.8428 22.5525 18.2986 23.1168 18.6059C23.6914 18.9132 24.3583 19.0668 25.1176 19.0668C25.8461 19.0668 26.4925 18.9132 27.0568 18.6059C27.6314 18.2986 28.1137 17.8428 28.5036 17.2385C28.8934 16.6342 29.1859 15.8967 29.3808 15.0261C29.586 14.1452 29.6886 13.1414 29.6886 12.0147Z" fill="#FB9300"/>
<path d="M55.8836 10.8778V19.8965C55.5142 20.3164 54.9499 20.7671 54.1906 21.2485C53.4416 21.7299 52.4822 22.1447 51.3125 22.493C50.1429 22.831 48.7474 23 47.1263 23C45.659 23 44.3252 22.7644 43.1247 22.2933C41.9242 21.8118 40.8931 21.1102 40.0312 20.1884C39.1693 19.2563 38.5024 18.1194 38.0304 16.7776C37.5687 15.4358 37.3378 13.8994 37.3378 12.1683V10.847C37.3378 9.11601 37.5687 7.5796 38.0304 6.23781C38.4921 4.89601 39.1436 3.7642 39.985 2.84235C40.8264 1.91027 41.8268 1.20352 42.9862 0.722111C44.1456 0.240704 45.4282 0 46.8339 0C48.8347 0 50.4712 0.322645 51.7435 0.967936C53.0158 1.60298 53.9803 2.48386 54.6369 3.61055C55.3039 4.73725 55.7143 6.03296 55.8682 7.49766H51.0355C50.9329 6.74994 50.7277 6.10465 50.4199 5.56179C50.1223 5.01893 49.6965 4.6041 49.1425 4.3173C48.5884 4.02026 47.8702 3.87174 46.9878 3.87174C46.2798 3.87174 45.6385 4.02026 45.0639 4.3173C44.4996 4.6041 44.0225 5.03941 43.6326 5.62325C43.2427 6.20708 42.9451 6.93431 42.7399 7.80494C42.5347 8.66533 42.4321 9.66912 42.4321 10.8163V12.1683C42.4321 13.3155 42.5347 14.3244 42.7399 15.1951C42.9554 16.0657 43.2684 16.7929 43.6788 17.3768C44.0892 17.9503 44.6073 18.3857 45.2332 18.6827C45.8694 18.9797 46.6081 19.1283 47.4495 19.1283C48.1062 19.1283 48.6602 19.077 49.1117 18.9746C49.5631 18.8619 49.9325 18.7237 50.2198 18.5598C50.5071 18.3857 50.7226 18.2269 50.8662 18.0835V14.3654H46.88V10.8778H55.8836Z" fill="#FB9300"/>
<path d="M78 11.016V12.0147C78 13.715 77.764 15.2411 77.292 16.5932C76.8303 17.9452 76.1685 19.0975 75.3066 20.0501C74.455 21.0027 73.4392 21.735 72.2593 22.2472C71.0896 22.7491 69.7916 23 68.3654 23C66.9392 23 65.6362 22.7491 64.4562 22.2472C63.2762 21.735 62.2502 21.0027 61.3781 20.0501C60.5162 19.0975 59.8493 17.9452 59.3773 16.5932C58.9053 15.2411 58.6693 13.715 58.6693 12.0147V11.016C58.6693 9.31574 58.9053 7.78958 59.3773 6.43754C59.8493 5.07526 60.5111 3.91784 61.3627 2.96526C62.2245 2.01269 63.2455 1.28546 64.4254 0.783567C65.6054 0.271432 66.9084 0.0153641 68.3346 0.0153641C69.7609 0.0153641 71.0639 0.271432 72.2439 0.783567C73.4238 1.28546 74.4396 2.01269 75.2912 2.96526C76.1531 3.91784 76.8201 5.07526 77.292 6.43754C77.764 7.78958 78 9.31574 78 11.016ZM72.9365 12.0147V10.9853C72.9365 9.84836 72.8339 8.84458 72.6287 7.97395C72.4234 7.09308 72.1259 6.3556 71.736 5.76152C71.3461 5.16745 70.8639 4.72189 70.2893 4.42485C69.7147 4.11757 69.0631 3.96393 68.3346 3.96393C67.5754 3.96393 66.9136 4.11757 66.3493 4.42485C65.7849 4.72189 65.3078 5.16745 64.9179 5.76152C64.5383 6.3556 64.2459 7.09308 64.0406 7.97395C63.8457 8.84458 63.7482 9.84836 63.7482 10.9853V12.0147C63.7482 13.1414 63.8457 14.1452 64.0406 15.0261C64.2459 15.8967 64.5434 16.6342 64.9333 17.2385C65.3232 17.8428 65.8003 18.2986 66.3646 18.6059C66.9392 18.9132 67.6062 19.0668 68.3654 19.0668C69.0939 19.0668 69.7403 18.9132 70.3047 18.6059C70.8792 18.2986 71.3615 17.8428 71.7514 17.2385C72.1413 16.6342 72.4337 15.8967 72.6287 15.0261C72.8339 14.1452 72.9365 13.1414 72.9365 12.0147Z" fill="#FB9300"/>
</svg>
