<svg width="24" height="24" viewBox="0 0 24 24" fill="none" xmlns="http://www.w3.org/2000/svg">
<path d="M1.85 10.5C1.85 15.2682 5.73179 19.15 10.5 19.15C15.2682 19.15 19.15 15.2682 19.15 10.5C19.15 5.73179 15.2682 1.85 10.5 1.85C5.73179 1.85 1.85 5.73179 1.85 10.5ZM3.3939 10.5C3.3939 6.58566 6.57759 3.3939 10.5 3.3939C14.4224 3.3939 17.6061 6.58566 17.6061 10.5C17.6061 14.4143 14.4224 17.6061 10.5 17.6061C6.57759 17.6061 3.3939 14.4143 3.3939 10.5Z" fill="#292D32" stroke="#292D32" stroke-width="0.3"/>
<path d="M20.9306 23C20.6588 23 20.387 22.8999 20.1724 22.6855L17.3112 19.8263C16.8963 19.4117 16.8963 18.7255 17.3112 18.3109C17.726 17.8964 18.4127 17.8964 18.8276 18.3109L21.6888 21.1701C22.1037 21.5847 22.1037 22.2709 21.6888 22.6855C21.4742 22.8999 21.2024 23 20.9306 23Z" fill="#292D32"/>
</svg>
