<svg width="24" height="24" viewBox="0 0 24 24" fill="none" xmlns="http://www.w3.org/2000/svg">
<g id="shopping-bag">
<path id="Vector" d="M16.4904 22.7503H7.50042C5.78042 22.7503 4.49042 22.2903 3.69042 21.3803C2.89043 20.4703 2.58042 19.1503 2.79042 17.4403L3.69042 9.94031C3.95042 7.73031 4.51043 5.75031 8.41042 5.75031H15.6104C19.5004 5.75031 20.0604 7.73031 20.3304 9.94031L21.2304 17.4403C21.4304 19.1503 21.1304 20.4803 20.3304 21.3803C19.5004 22.2903 18.2204 22.7503 16.4904 22.7503ZM8.40041 7.25031C5.52041 7.25031 5.38042 8.39029 5.17042 10.1103L4.27043 17.6103C4.12043 18.8803 4.30042 19.8103 4.81042 20.3803C5.32042 20.9503 6.22042 21.2403 7.50042 21.2403H16.4904C17.7704 21.2403 18.6704 20.9503 19.1804 20.3803C19.6904 19.8103 19.8704 18.8803 19.7204 17.6103L18.8204 10.1103C18.6104 8.38029 18.4804 7.25031 15.5904 7.25031H8.40041Z" fill="#343F56"/>
<path id="Vector_2" d="M16 8.74948C15.59 8.74948 15.25 8.40948 15.25 7.99948V4.49948C15.25 3.41948 14.58 2.74948 13.5 2.74948H10.5C9.42 2.74948 8.75 3.41948 8.75 4.49948V7.99948C8.75 8.40948 8.41 8.74948 8 8.74948C7.59 8.74948 7.25 8.40948 7.25 7.99948V4.49948C7.25 2.58948 8.59 1.24948 10.5 1.24948H13.5C15.41 1.24948 16.75 2.58948 16.75 4.49948V7.99948C16.75 8.40948 16.41 8.74948 16 8.74948Z" fill="#343F56"/>
<path id="Vector_3" d="M20.41 17.7806H8C7.59 17.7806 7.25 17.4404 7.25 17.0302C7.25 16.62 7.59 16.2799 8 16.2799H20.41C20.82 16.2799 21.16 16.62 21.16 17.0302C21.16 17.4404 20.82 17.7806 20.41 17.7806Z" fill="#343F56"/>
</g>
</svg>
